<?xml version="1.0" standalone="no"?>
<!DOCTYPE svg PUBLIC "-//W3C//DTD SVG 20010904//EN"
 "http://www.w3.org/TR/2001/REC-SVG-20010904/DTD/svg10.dtd">
<svg version="1.0" xmlns="http://www.w3.org/2000/svg"
 width="700.000000pt" height="700.000000pt" viewBox="0 0 700.000000 700.000000"
 preserveAspectRatio="xMidYMid meet">
<metadata>
Created by potrace 1.11, written by Peter Selinger 2001-2013
</metadata>
<g transform="translate(0.000000,700.000000) scale(0.100000,-0.100000)"
fill="#000000" stroke="none">
<path d="M2840 6994 c-612 -58 -1154 -278 -1633 -664 -135 -108 -375 -348
-480 -480 -405 -507 -659 -1144 -716 -1795 -14 -159 -14 -461 0 -602 l12 -112
57 52 c261 242 1149 421 2373 478 330 15 1264 6 1567 -15 1093 -77 1857 -249
2081 -467 l47 -46 6 41 c26 173 24 559 -4 778 -39 315 -123 627 -245 913 -59
138 -81 181 -162 327 l-66 116 -107 61 c-511 290 -1079 460 -1695 508 -424 32
-926 -13 -1339 -122 -72 -19 -131 -33 -133 -32 -9 10 272 114 432 161 582 167
1203 181 1795 42 230 -54 453 -129 630 -211 90 -41 165 -73 167 -71 10 9 -139
175 -269 302 -484 466 -1094 756 -1749 829 -119 13 -463 18 -569 9z"/>
<path d="M5898 6795 c-161 -26 -305 -86 -548 -232 -69 -41 -133 -80 -143 -88
-16 -12 -2 -29 160 -191 98 -99 208 -217 243 -263 105 -137 96 -129 190 -147
47 -8 139 -29 205 -45 66 -17 181 -37 255 -45 185 -20 602 -36 675 -27 51 7
60 11 63 30 7 48 -170 260 -277 332 -80 54 -215 126 -291 154 -36 14 -111 33
-167 43 l-101 18 131 53 c167 68 427 195 450 220 9 11 15 27 12 35 -8 21 -164
92 -256 117 -184 50 -417 64 -601 36z"/>
<path d="M1637 3306 c-47 -17 -66 -41 -67 -83 -1 -88 238 -178 505 -190 167
-8 245 23 245 98 0 94 -218 174 -505 184 -107 4 -149 2 -178 -9z"/>
<path d="M4140 3313 c-140 -15 -301 -57 -365 -94 -35 -21 -65 -63 -65 -93 0
-32 49 -74 102 -86 147 -36 582 49 668 130 49 46 33 107 -36 136 -32 13 -208
17 -304 7z"/>
<path d="M55 3128 c2 -13 12 -63 20 -113 43 -240 127 -547 219 -793 46 -124
47 -124 127 -200 189 -179 496 -403 730 -533 733 -407 1581 -582 2394 -493
212 23 485 71 629 110 71 19 131 33 133 31 10 -11 -268 -114 -435 -162 -905
-258 -1888 -141 -2731 325 -167 92 -407 258 -540 373 -50 43 -91 75 -91 72 0
-11 110 -204 168 -295 526 -820 1283 -1332 2122 -1436 197 -24 513 -15 710 19
1252 220 2268 1363 2574 2897 14 69 28 148 32 175 l7 50 -44 -40 c-243 -223
-852 -398 -1727 -496 -319 -36 -353 -28 -732 155 -280 136 -368 166 -501 173
-166 9 -275 -21 -594 -168 -405 -185 -441 -191 -788 -150 -825 99 -1441 281
-1639 485 -41 42 -50 45 -43 14z"/>
</g>
</svg>
